<?xml version="1.0" standalone="no"?>
<!DOCTYPE svg PUBLIC "-//W3C//DTD SVG 20010904//EN"
 "http://www.w3.org/TR/2001/REC-SVG-20010904/DTD/svg10.dtd">
<svg version="1.0" xmlns="http://www.w3.org/2000/svg"
 width="500.000000pt" height="500.000000pt" viewBox="0 0 500.000000 500.000000"
 preserveAspectRatio="xMidYMid meet">
<metadata>
Created by potrace 1.11, written by Peter Selinger 2001-2013
</metadata>
<g transform="translate(0.000000,500.000000) scale(0.100000,-0.100000)"
fill="#000000" stroke="none">
<path d="M2950 4545 l0 -45 -45 0 -45 0 0 -45 0 -45 -45 0 -45 0 0 -45 0 -45
-90 0 -90 0 0 -45 0 -45 -45 0 -45 0 0 -45 0 -45 -45 0 -45 0 0 -45 0 -45
-140 0 -140 0 0 -45 0 -45 -135 0 -135 0 0 -45 0 -45 -45 0 -45 0 0 -45 0 -45
-90 0 -90 0 0 -45 0 -45 -45 0 -45 0 0 -500 0 -500 45 0 45 0 0 -95 0 -95 45
0 45 0 0 -45 0 -45 90 0 90 0 0 -45 0 -45 -45 0 -45 0 0 -45 0 -45 -45 0 -45
0 0 -90 0 -90 -45 0 -45 0 0 -275 0 -275 -45 0 -45 0 0 -180 0 -180 45 0 45 0
0 -45 0 -45 90 0 90 0 0 -90 0 -90 -45 0 -45 0 0 -45 0 -45 -45 0 -45 0 0 -45
0 -45 -45 0 -45 0 0 -95 0 -95 45 0 45 0 0 -45 0 -45 365 0 365 0 0 45 0 45
45 0 45 0 0 45 0 45 45 0 45 0 0 95 0 95 45 0 45 0 0 -95 0 -95 45 0 45 0 0
-45 0 -45 90 0 90 0 0 -45 0 -45 275 0 275 0 0 45 0 45 45 0 45 0 0 95 0 95
-45 0 -45 0 0 45 0 45 -45 0 -45 0 0 45 0 45 -50 0 -50 0 0 90 0 90 50 0 50 0
0 45 0 45 45 0 45 0 0 180 0 180 -45 0 -45 0 0 275 0 275 -50 0 -50 0 0 45 0
45 -45 0 -45 0 0 45 0 45 45 0 45 0 0 45 0 45 50 0 50 0 0 45 0 45 45 0 45 0
0 455 0 455 -45 0 -45 0 0 90 0 90 -50 0 -50 0 0 95 0 95 50 0 50 0 0 45 0 45
45 0 45 0 0 135 0 135 -45 0 -45 0 0 135 0 135 -50 0 -50 0 0 45 0 45 -45 0
-45 0 0 45 0 45 -45 0 -45 0 0 45 0 45 -45 0 -45 0 0 -45z m-360 -905 l0 -50
90 0 90 0 0 -45 0 -45 135 0 135 0 0 45 0 45 45 0 45 0 0 -45 0 -45 45 0 45 0
0 -90 0 -90 50 0 50 0 0 -45 0 -45 -185 0 -185 0 0 -45 0 -45 185 0 185 0 0
-365 0 -365 -50 0 -50 0 0 -45 0 -45 -45 0 -45 0 0 -45 0 -45 -90 0 -90 0 0
-45 0 -45 90 0 90 0 0 -45 0 -45 45 0 45 0 0 -230 0 -230 -45 0 -45 0 0 140 0
140 -45 0 -45 0 0 -365 0 -365 -180 0 -180 0 0 455 0 455 135 0 135 0 0 45 0
45 -315 0 -315 0 0 -45 0 -45 135 0 135 0 0 -455 0 -455 -230 0 -230 0 0 45 0
45 -45 0 -45 0 0 135 0 135 -45 0 -45 0 0 -180 0 -180 -180 0 -180 0 0 180 0
180 180 0 180 0 0 185 0 185 -45 0 -45 0 0 -140 0 -140 -90 0 -90 0 0 230 0
230 45 0 45 0 0 90 0 90 45 0 45 0 0 45 0 45 45 0 45 0 0 45 0 45 -45 0 -45 0
0 90 0 90 -45 0 -45 0 0 185 0 185 90 0 90 0 0 -135 0 -135 90 0 90 0 0 45 0
45 45 0 45 0 0 135 0 135 -45 0 -45 0 0 45 0 45 -45 0 -45 0 0 45 0 45 -45 0
-45 0 0 135 0 135 45 0 45 0 0 45 0 45 45 0 45 0 0 50 0 50 230 0 230 0 0 -50z
m730 -2320 l0 -180 -95 0 -95 0 0 180 0 180 95 0 95 0 0 -180z m-1000 -680 l0
-50 -50 0 -50 0 0 -45 0 -45 -315 0 -315 0 0 45 0 45 315 0 315 0 0 50 0 50
50 0 50 0 0 -50z m540 0 l0 -50 275 0 275 0 0 -45 0 -45 -275 0 -275 0 0 45 0
45 -45 0 -45 0 0 50 0 50 45 0 45 0 0 -50z"/>
<path d="M2310 3185 l0 -45 230 0 230 0 0 45 0 45 -230 0 -230 0 0 -45z"/>
<path d="M2410 2825 l0 -135 90 0 90 0 0 135 0 135 -90 0 -90 0 0 -135z"/>
<path d="M3040 2825 l0 -135 90 0 90 0 0 135 0 135 -90 0 -90 0 0 -135z"/>
<path d="M2510 2535 l0 -45 40 0 40 0 0 -40 0 -40 180 0 180 0 0 45 0 45 -175
0 -175 0 0 40 0 40 -45 0 -45 0 0 -45z"/>
<path d="M1950 2275 l0 -45 90 0 90 0 0 -45 0 -45 95 0 95 0 0 45 0 45 -95 0
-95 0 0 45 0 45 -90 0 -90 0 0 -45z"/>
</g>
</svg>
